<?xml version="1.0" encoding="utf-8"?>
<svg version="1.1" xmlns:xlink="http://www.w3.org/1999/xlink" width="72px" height="40px" xmlns="http://www.w3.org/2000/svg">
  <g transform="matrix(1 0 0 1 -158 -92 )">
    <path d="M 159 94  A 1 1 0 0 1 160 93 L 228 93  A 1 1 0 0 1 229 94 L 229 130  A 1 1 0 0 1 228 131 L 160 131  A 1 1 0 0 1 159 130 L 159 94  Z " fill-rule="nonzero" fill="#ffffff" stroke="none" />
    <path d="M 158.5 94  A 1.5 1.5 0 0 1 160 92.5 L 228 92.5  A 1.5 1.5 0 0 1 229.5 94 L 229.5 130  A 1.5 1.5 0 0 1 228 131.5 L 160 131.5  A 1.5 1.5 0 0 1 158.5 130 L 158.5 94  Z " stroke-width="1" stroke="#e4e4e4" fill="none" stroke-opacity="0.698039215686274" />
  </g>
</svg>