<?xml version="1.0" encoding="utf-8"?>
<svg version="1.1" xmlns:xlink="http://www.w3.org/1999/xlink" width="48px" height="24px" xmlns="http://www.w3.org/2000/svg">
  <g transform="matrix(1 0 0 1 -44 -251 )">
    <path d="M 45 253  A 1 1 0 0 1 46 252 L 90 252  A 1 1 0 0 1 91 253 L 91 273  A 1 1 0 0 1 90 274 L 46 274  A 1 1 0 0 1 45 273 L 45 253  Z " fill-rule="nonzero" fill="#ffffff" stroke="none" />
    <path d="M 44.5 253  A 1.5 1.5 0 0 1 46 251.5 L 90 251.5  A 1.5 1.5 0 0 1 91.5 253 L 91.5 273  A 1.5 1.5 0 0 1 90 274.5 L 46 274.5  A 1.5 1.5 0 0 1 44.5 273 L 44.5 253  Z " stroke-width="1" stroke="#fd6853" fill="none" stroke-opacity="0.6" />
  </g>
</svg>