<?xml version="1.0" encoding="utf-8"?>
<svg version="1.1" xmlns:xlink="http://www.w3.org/1999/xlink" width="48px" height="48px" xmlns="http://www.w3.org/2000/svg">
  <g transform="matrix(1 0 0 1 -13 -11 )">
    <path d="M 37 11.5  C 50.16 11.5  60.5 21.84  60.5 35  C 60.5 48.16  50.16 58.5  37 58.5  C 23.84 58.5  13.5 48.16  13.5 35  C 13.5 21.84  23.84 11.5  37 11.5  Z " fill-rule="nonzero" fill="#ffffff" stroke="none" />
    <path d="M 37 11.5  C 50.16 11.5  60.5 21.84  60.5 35  C 60.5 48.16  50.16 58.5  37 58.5  C 23.84 58.5  13.5 48.16  13.5 35  C 13.5 21.84  23.84 11.5  37 11.5  Z " stroke-width="1" stroke="#cccccc" fill="none" stroke-opacity="0.698039215686274" />
  </g>
</svg>