<?xml version="1.0" encoding="utf-8"?>
<svg version="1.1" xmlns:xlink="http://www.w3.org/1999/xlink" width="120px" height="96px" xmlns="http://www.w3.org/2000/svg">
  <g transform="matrix(1 0 0 1 -12 -12 )">
    <path d="M 12 12  L 132 12  L 132 108  L 12 108  L 12 12  " fill-rule="nonzero" fill="#cccccc" stroke="none" />
    <path d="M 19 19  L 125 19  L 125 101  L 19 101  L 19 19  " fill-rule="nonzero" fill="#ffffff" stroke="none" />
    <path d="M 81.6 40.8  C 77.568 40.8  74.4 37.632  74.4 33.6  C 74.4 29.568  77.568 26.4  81.6 26.4  C 85.632 26.4  88.8 29.568  88.8 33.6  C 88.8 37.632  85.632 40.8  81.6 40.8  " fill-rule="nonzero" fill="#cccccc" stroke="none" />
    <path d="M 22 99  L 22 56.65  L 47.25 37.4  L 82.6 62.04  L 102.8 48.95  L 123 62.04  L 123 99  L 22 99  " fill-rule="nonzero" fill="#169bd5" stroke="none" />
  </g>
</svg>